<?xml version="1.0" standalone="no"?>
<!DOCTYPE svg PUBLIC "-//W3C//DTD SVG 20010904//EN"
 "http://www.w3.org/TR/2001/REC-SVG-20010904/DTD/svg10.dtd">
<svg version="1.0" xmlns="http://www.w3.org/2000/svg"
 width="300.000000pt" height="300.000000pt" viewBox="0 0 300.000000 300.000000"
 preserveAspectRatio="xMidYMid meet">
<metadata>
Created by potrace 1.10, written by Peter Selinger 2001-2011
</metadata>
<g transform="translate(0.000000,300.000000) scale(0.100000,-0.100000)"
fill="#000000" stroke="none">
<path d="M1440 2881 c-41 -9 -72 -24 -90 -45 -7 -9 -25 -16 -40 -16 -37 0 -84
-40 -119 -101 l-27 -48 -37 34 c-51 48 -60 46 -116 -17 -23 -27 -23 -28 -6
-55 23 -35 56 -62 75 -62 8 -1 26 11 39 25 l25 26 9 -24 c4 -12 6 -37 2 -54
-7 -39 27 -147 61 -192 31 -40 83 -74 105 -68 9 2 32 -9 50 -25 36 -31 45 -33
122 -30 52 1 76 11 120 47 16 13 36 24 45 24 40 0 107 87 131 170 11 39 8 184
-4 215 -8 19 -8 19 12 3 26 -24 60 -23 73 1 13 24 4 48 -21 56 -20 7 -59 -10
-59 -25 0 -22 -27 -6 -55 33 -36 48 -89 87 -120 87 -12 0 -33 8 -46 19 -29 22
-82 31 -129 22z m105 -40 l30 -7 -30 -16 c-65 -35 -112 -108 -122 -186 l-5
-47 -59 0 -60 0 7 45 c23 176 98 243 239 211z m-246 -80 c-12 -23 -26 -73 -32
-111 l-11 -70 -38 0 c-37 0 -38 1 -32 28 13 55 43 112 85 156 23 26 44 45 46
42 2 -2 -6 -22 -18 -45z m380 4 c36 -33 71 -96 86 -155 l6 -25 -156 0 -157 0
6 38 c15 91 88 176 153 177 13 0 40 -16 62 -35z m-558 -100 l23 -8 -26 -13
c-15 -8 -30 -23 -33 -35 -7 -20 -8 -19 -26 10 -10 17 -27 31 -36 31 -13 1 -10
5 9 16 15 8 31 26 34 40 l7 26 13 -30 c7 -16 22 -33 35 -37z m729 45 c0 -11
-7 -20 -15 -20 -8 0 -15 9 -15 20 0 11 7 20 15 20 8 0 15 -9 15 -20z m-591
-176 c2 -2 8 -32 13 -66 4 -34 19 -86 33 -115 13 -29 20 -53 16 -53 -5 0 -27
21 -51 46 -44 48 -74 106 -84 166 l-7 37 38 -6 c21 -3 40 -7 42 -9z m507 -27
c-14 -88 -80 -177 -130 -177 -32 0 -91 31 -114 59 -24 30 -50 87 -57 121 l-6
35 156 0 157 0 -6 -38z m-346 13 c0 -32 35 -114 64 -153 15 -20 49 -46 74 -59
l47 -22 -40 -12 c-53 -16 -124 -17 -155 -1 -33 16 -77 98 -90 167 -6 30 -13
65 -16 78 -4 21 -1 22 56 22 53 0 60 -2 60 -20z"/>
<path d="M1670 2474 c-30 -13 -68 -24 -85 -24 -16 -1 -39 -5 -50 -10 -18 -8
-18 -9 5 -10 53 -4 87 2 138 25 28 13 52 29 52 34 0 6 -1 10 -2 10 -2 -1 -28
-12 -58 -25z"/>
<path d="M1354 2446 c23 -18 42 -20 51 -6 3 6 0 10 -7 10 -7 0 -24 3 -38 6
-24 5 -24 5 -6 -10z"/>
<path d="M1902 2651 c-34 -33 -62 -67 -62 -75 0 -8 15 -25 33 -37 17 -13 38
-31 45 -41 7 -10 22 -23 33 -29 18 -9 28 -3 80 48 32 32 57 64 54 71 -2 6 0
12 5 12 6 0 10 -4 10 -9 0 -19 41 -23 60 -6 23 20 22 34 -4 57 -20 19 -52 10
-63 -18 -9 -25 -32 -15 -80 36 l-48 51 -63 -60z m107 -42 c13 -11 32 -19 42
-19 32 0 21 -17 -16 -24 -36 -7 -64 -43 -66 -83 0 -10 -7 0 -15 22 -17 48 -38
65 -77 65 -16 0 -26 4 -22 10 3 6 14 10 24 10 29 0 68 37 76 72 l7 33 12 -34
c7 -18 22 -42 35 -52z m141 8 c0 -8 -3 -17 -7 -20 -9 -9 -34 13 -27 24 8 14
34 11 34 -4z"/>
<path d="M2383 2683 c-22 -4 -73 -49 -73 -64 0 -5 -15 -9 -33 -9 -40 0 -77
-34 -77 -72 0 -22 -6 -27 -44 -37 -56 -14 -78 -42 -70 -92 5 -29 2 -40 -16
-57 -13 -12 -27 -19 -32 -16 -4 3 -22 -10 -38 -28 -24 -26 -29 -38 -24 -58 4
-14 8 -36 9 -50 4 -54 17 -88 45 -115 25 -24 33 -26 72 -21 24 4 64 9 91 12
57 7 92 42 83 85 -6 34 18 69 49 69 13 0 31 3 40 6 24 9 43 55 35 84 -7 26 4
50 24 50 7 0 23 11 36 25 22 24 23 29 13 68 -10 37 -9 45 7 62 26 29 33 61 20
99 -17 53 -53 71 -117 59z m76 -52 c12 -22 9 -91 -3 -89 -6 1 -20 -3 -32 -9
-18 -10 -25 -8 -47 15 -31 33 -35 92 -6 92 10 0 20 4 23 9 8 13 56 0 65 -18z
m-173 -65 c6 -16 134 -109 134 -97 0 4 -27 27 -60 50 -53 37 -74 61 -53 61 19
0 116 -86 131 -117 16 -33 16 -36 -2 -48 -23 -18 -37 -12 -119 48 -76 56 -95
81 -76 103 15 18 38 18 45 0z m22 -122 c61 -45 69 -57 54 -81 -5 -9 -31 5 -84
45 -58 43 -74 60 -66 69 17 21 30 16 96 -33z m-75 -24 c103 -69 139 -104 135
-132 -3 -21 -8 -23 -52 -20 -29 1 -53 -3 -57 -9 -4 -7 -25 3 -59 30 -28 22
-56 41 -62 41 -5 0 -7 8 -4 18 4 11 0 35 -9 55 -13 32 -13 37 1 51 8 9 19 16
24 16 5 0 42 -23 83 -50z m-49 -140 c61 -47 78 -71 58 -84 -7 -4 -127 76 -156
104 -11 10 1 30 18 30 7 0 43 -23 80 -50z m-41 -46 c51 -36 96 -72 100 -80 11
-20 -9 -44 -37 -44 -39 0 -196 119 -196 149 0 18 18 41 32 41 5 0 50 -30 101
-66z m-50 -84 c25 -19 46 -38 47 -42 0 -5 -22 -8 -49 -8 -28 0 -52 3 -54 8 -3
4 -8 27 -12 51 -8 49 -10 49 68 -9z"/>
<path d="M2150 2411 c0 -10 99 -89 138 -110 49 -26 30 -2 -40 51 -90 67 -98
72 -98 59z"/>
<path d="M924 2615 c-13 -20 -14 -28 -4 -40 20 -24 6 -27 -18 -5 -12 11 -24
20 -28 20 -4 0 -15 7 -25 16 -11 10 -27 14 -41 10 -28 -7 -119 -92 -173 -161
-22 -27 -44 -52 -50 -54 -18 -7 -141 -137 -173 -182 -17 -24 -60 -74 -96 -111
-81 -83 -84 -103 -24 -162 84 -81 208 -190 237 -208 37 -24 58 -15 116 51 40
45 47 52 96 94 14 12 49 49 76 82 28 33 77 87 109 121 33 33 77 82 99 110 22
27 45 55 52 62 18 19 36 91 29 118 -3 12 -31 44 -62 71 -82 71 -107 94 -103
96 62 33 72 52 40 78 -30 25 -37 24 -57 -6z m42 -151 l121 -101 -73 -67 c-41
-37 -81 -80 -91 -97 -10 -16 -21 -28 -24 -27 -15 6 -259 223 -259 231 0 4 39
48 86 97 75 77 89 88 103 78 9 -7 70 -58 137 -114z m-220 -206 l129 -113 -76
-75 c-41 -41 -83 -92 -93 -113 l-18 -39 -61 59 c-34 32 -94 87 -134 122 -64
56 -71 66 -62 84 13 24 169 187 179 187 4 0 65 -51 136 -112z m302 15 c-25
-27 -62 -69 -81 -95 -37 -49 -63 -49 -32 0 21 33 136 142 149 142 6 0 -10 -21
-36 -47z m-475 -292 c59 -52 106 -98 105 -102 -2 -3 -29 -35 -61 -69 -56 -61
-59 -62 -76 -44 -9 11 -72 68 -139 129 -67 60 -122 112 -122 115 0 4 25 34 56
68 l56 62 36 -32 c21 -17 85 -74 145 -127z m337 135 c0 -3 -27 -30 -59 -61
-33 -31 -75 -79 -93 -106 -50 -73 -70 -63 -23 12 47 73 175 187 175 155z"/>
<path d="M822 2407 c-55 -56 -76 -85 -54 -75 15 6 135 138 126 138 -5 0 -38
-28 -72 -63z"/>
<path d="M862 2376 c-34 -35 -62 -70 -62 -77 0 -6 32 21 70 61 39 40 70 75 70
76 0 15 -26 -5 -78 -60z"/>
<path d="M740 2395 c-13 -14 -21 -27 -18 -30 2 -3 17 9 33 25 16 17 24 30 19
30 -6 0 -21 -11 -34 -25z"/>
<path d="M900 2338 c-33 -33 -60 -66 -60 -72 0 -6 32 21 70 59 39 38 70 71 70
72 0 15 -30 -7 -80 -59z"/>
<path d="M935 2300 c-38 -38 -63 -69 -55 -69 17 2 149 139 134 139 -5 0 -41
-31 -79 -70z"/>
<path d="M541 2254 c-61 -65 -82 -94 -68 -94 8 0 149 162 144 166 -2 3 -36
-30 -76 -72z"/>
<path d="M571 2213 c-39 -42 -68 -80 -65 -85 3 -5 24 13 47 39 23 26 56 63 74
82 18 18 33 35 33 37 0 16 -28 -7 -89 -73z"/>
<path d="M611 2183 c-38 -42 -68 -80 -65 -85 4 -7 145 134 152 153 11 27 -25
0 -87 -68z"/>
<path d="M659 2155 c-62 -63 -91 -101 -72 -94 17 7 156 159 145 159 -6 0 -39
-29 -73 -65z"/>
<path d="M691 2114 c-39 -42 -69 -80 -66 -85 3 -5 20 8 37 29 18 20 52 58 77
85 25 26 40 47 34 47 -6 0 -43 -34 -82 -76z"/>
<path d="M733 2084 c-107 -121 -96 -129 16 -11 45 46 68 77 58 77 -8 0 -42
-30 -74 -66z"/>
<path d="M391 2023 c-17 -20 -28 -39 -26 -42 6 -6 75 60 75 71 0 18 -20 6 -49
-29z"/>
<path d="M431 1995 c-27 -32 -39 -55 -27 -55 8 0 68 81 64 86 -3 2 -19 -11
-37 -31z"/>
<path d="M502 1927 c-32 -32 -39 -47 -24 -47 10 0 75 80 65 80 -5 0 -23 -15
-41 -33z"/>
<path d="M542 1897 c-32 -33 -39 -47 -24 -47 9 0 65 70 60 76 -2 2 -19 -11
-36 -29z"/>
<path d="M1865 2440 c-18 -20 -18 -21 5 -45 17 -18 27 -22 40 -15 24 13 32 38
20 61 -14 25 -42 24 -65 -1z"/>
<path d="M1850 2334 c-14 -9 -33 -29 -43 -45 -16 -29 -16 -30 19 -69 20 -22
40 -40 44 -40 12 0 69 50 80 69 7 13 0 27 -28 59 -21 23 -40 42 -42 42 -3 0
-16 -8 -30 -16z m63 -60 c20 -6 20 -7 -6 -26 -15 -11 -27 -27 -27 -36 -1 -12
-4 -10 -14 7 -7 13 -24 30 -37 37 -19 11 -20 13 -6 14 10 0 26 13 35 30 l17
30 8 -25 c5 -13 18 -27 30 -31z"/>
<path d="M2439 2272 c-29 -26 -31 -30 -19 -53 29 -54 68 -63 105 -23 32 34 31
45 -1 78 -34 33 -46 33 -85 -2z m66 -57 l-20 -21 -20 21 c-20 20 -20 20 -1 41
l19 21 21 -21 21 -21 -20 -20z"/>
<path d="M2585 2195 c-34 -35 -45 -68 -25 -80 6 -3 10 -12 10 -20 0 -10 -19
-13 -76 -13 l-75 0 22 24 23 25 -25 24 c-23 24 -26 24 -48 9 -18 -13 -21 -22
-16 -43 4 -14 11 -29 17 -32 5 -4 -19 -10 -55 -13 -51 -6 -70 -13 -88 -32
l-24 -26 -2 -296 c-2 -278 -1 -299 18 -330 21 -36 24 -46 10 -38 -15 9 -81
-63 -81 -88 0 -28 65 -90 83 -80 7 4 19 13 28 21 15 12 18 9 32 -26 21 -51 8
-130 -34 -216 -16 -33 -30 -73 -32 -89 -1 -15 -7 -31 -14 -33 -18 -7 -72 29
-120 81 -48 52 -58 55 -88 26 l-22 -21 -14 23 c-42 66 -41 72 12 124 57 56
130 194 156 294 25 96 22 245 -6 345 -27 98 -82 200 -127 239 -19 16 -34 36
-34 45 0 10 -16 36 -35 59 -26 30 -46 43 -73 48 -62 10 -72 15 -72 33 0 9 -13
24 -29 34 -24 14 -60 16 -253 17 -213 0 -227 -1 -252 -21 -17 -14 -33 -18 -47
-14 -49 16 -208 -100 -289 -210 -42 -56 -81 -131 -99 -187 -7 -21 -17 -41 -23
-44 -5 -3 -25 8 -43 26 -33 32 -35 32 -59 17 -41 -28 -66 -70 -53 -92 11 -22
58 -65 69 -65 4 0 22 9 40 20 l33 19 0 -107 c0 -70 6 -129 18 -170 16 -61 71
-185 92 -209 28 -34 35 -43 35 -48 0 -12 57 -68 83 -82 47 -24 43 -7 -11 52
-67 73 -114 153 -149 250 -25 72 -28 93 -28 210 0 116 3 138 27 203 37 103 82
175 158 252 55 57 174 140 199 140 4 0 6 -12 3 -27 -3 -21 -17 -36 -54 -58
-28 -16 -79 -57 -112 -91 -201 -199 -231 -515 -74 -755 23 -35 50 -86 59 -114
10 -27 22 -51 28 -53 5 -2 27 -20 48 -41 50 -50 106 -78 181 -90 105 -17 186
0 269 56 l52 35 34 -26 c19 -14 39 -26 45 -26 6 0 12 -3 14 -8 6 -14 108 -74
119 -70 18 6 -57 72 -127 113 -49 29 -61 40 -57 56 3 10 9 19 13 19 19 0 130
-92 156 -129 16 -22 32 -41 36 -41 9 0 5 36 -5 46 -4 4 -7 15 -7 25 0 15 5 13
30 -11 17 -17 42 -37 55 -46 14 -9 25 -24 25 -33 0 -19 41 -63 56 -60 5 1 15
1 22 0 12 -1 234 -222 282 -280 25 -31 25 -31 58 -15 41 21 112 109 112 140 0
25 -34 54 -63 54 -21 0 -77 36 -77 50 0 4 24 8 53 8 125 1 127 2 153 27 17 18
23 31 19 43 -4 9 -12 35 -17 57 -5 22 -21 59 -34 83 -26 44 -49 158 -38 186 3
9 12 16 19 16 14 0 53 -35 75 -68 8 -12 20 -22 27 -22 7 0 38 26 68 57 44 46
55 63 50 80 -4 18 -1 23 13 23 10 0 25 11 32 25 12 22 11 28 -9 49 l-23 24 37
12 c67 22 68 24 67 368 l-1 307 -30 26 c-20 17 -45 26 -73 28 -49 2 -68 15
-50 33 22 22 13 55 -23 87 -20 17 -38 31 -40 31 -2 0 -20 -16 -40 -35z m87
-45 c7 0 4 -8 -8 -18 -12 -9 -26 -26 -32 -37 -9 -16 -11 -17 -12 -3 0 9 -12
25 -27 36 -26 19 -27 20 -5 26 12 4 25 19 28 32 l6 25 19 -30 c10 -17 24 -31
31 -31z m-892 -65 l0 -65 -42 0 c-24 0 -48 -4 -55 -8 -29 -19 -33 -70 -33
-475 0 -411 0 -412 -24 -462 -45 -98 -118 -138 -252 -139 -82 -1 -96 2 -149
29 -40 20 -69 45 -90 73 -28 41 -30 49 -33 158 l-4 114 106 0 106 0 0 -92 c0
-71 4 -95 17 -110 20 -22 70 -23 95 -1 17 15 18 42 18 446 0 497 6 467 -92
467 l-58 0 0 65 0 65 245 0 245 0 0 -65z m646 54 c10 -17 -13 -36 -27 -22 -12
12 -4 33 11 33 5 0 12 -5 16 -11z m-499 -101 c12 -11 25 -33 28 -48 8 -35 -9
-101 -34 -131 -17 -22 -17 -24 6 -98 16 -52 22 -89 18 -116 -5 -34 0 -49 30
-99 20 -33 33 -66 31 -73 -8 -19 -83 -17 -94 3 -7 12 -11 13 -17 5 -12 -20 3
-55 26 -66 32 -14 35 -33 7 -44 -17 -7 -18 -10 -5 -10 19 -1 23 -27 5 -33 -7
-3 -12 -24 -13 -54 l0 -49 -40 1 c-22 0 -53 4 -70 8 l-30 8 25 -26 c20 -20 37
-27 73 -29 52 -2 52 -2 35 -23 -39 -45 -36 -45 -85 -14 -26 17 -52 30 -57 30
-6 0 -21 -15 -33 -32 -17 -24 -20 -36 -12 -50 13 -24 6 -33 -16 -21 -15 9 -16
36 -15 249 1 131 2 320 1 419 0 99 3 175 7 169 4 -6 21 -16 39 -23 30 -12 31
-14 18 -35 -12 -17 -12 -30 -4 -61 14 -50 4 -162 -16 -185 -22 -24 -19 -37 21
-115 20 -38 35 -71 35 -73 -4 -6 11 -79 21 -105 9 -22 7 -31 -6 -46 -16 -17
-15 -19 6 -24 27 -7 41 6 56 51 10 30 10 33 -7 27 -16 -5 -20 2 -26 52 -8 67
-25 112 -62 166 -22 32 -24 40 -12 48 22 14 91 11 123 -6 36 -19 39 -19 25 4
-10 14 -9 23 4 42 27 38 22 49 -26 49 -29 0 -54 -8 -80 -25 -42 -29 -43 -28
-22 11 21 41 19 112 -5 152 l-21 33 67 -2 c62 -2 67 -1 80 23 7 14 16 45 19
69 5 38 4 41 -7 24 -22 -33 -75 -85 -88 -85 -7 0 -2 9 11 20 l24 20 -30 -15
c-16 -8 -37 -15 -45 -14 -8 0 4 9 27 21 42 20 88 77 81 100 -2 6 -14 -5 -25
-25 -23 -38 -87 -78 -125 -76 -17 1 -14 3 12 11 19 5 40 14 45 19 6 6 -1 6
-18 0 -16 -6 -43 -11 -60 -10 l-32 1 30 7 c84 21 136 73 116 117 -6 14 -11 27
-11 29 0 9 77 -28 97 -47z m867 -14 c14 -13 16 -56 16 -314 0 -258 -2 -301
-16 -314 -23 -24 -495 -24 -518 0 -14 13 -16 56 -16 318 0 221 3 305 12 314 9
9 80 12 259 12 212 0 250 -2 263 -16z m-1560 -36 c-4 -13 -33 -51 -65 -85 -55
-60 -120 -174 -133 -235 -11 -50 11 -30 48 42 40 80 69 121 139 199 36 41 48
60 44 78 -3 19 -2 21 9 12 8 -7 35 -13 59 -14 25 -1 51 -7 58 -14 9 -9 12
-106 12 -376 0 -437 -1 -452 -26 -458 -23 -6 -30 13 -30 89 -1 32 -5 68 -9 80
-13 34 -80 55 -158 49 -93 -7 -116 -26 -120 -96 -2 -30 -7 -58 -11 -62 -22
-22 -111 171 -111 240 0 30 2 33 24 27 34 -8 62 31 42 61 -14 21 -27 23 -60 9
-18 -7 -19 -4 -12 61 6 64 53 205 67 205 3 0 4 -25 2 -55 -3 -31 -2 -68 2 -83
7 -24 10 -19 22 38 21 101 63 180 132 249 65 65 87 76 75 39z m804 -107 c23
-37 53 -104 68 -147 38 -110 40 -273 6 -384 -30 -95 -78 -183 -138 -249 -37
-41 -49 -49 -60 -40 -20 16 -17 33 7 55 40 36 108 151 133 224 52 158 41 317
-32 461 -29 58 -37 85 -34 113 2 20 5 36 7 36 1 0 21 -31 43 -69z m-40 -114
c11 -29 25 -68 31 -88 15 -49 19 -141 5 -146 -17 -6 -57 91 -51 123 3 15 -1
48 -9 73 -7 24 -11 48 -8 52 2 4 0 10 -6 14 -16 10 -12 35 4 29 8 -3 23 -29
34 -57z m-1227 -72 c23 -8 25 -25 4 -25 -9 0 -22 -15 -30 -32 l-13 -33 -7 28
c-5 18 -18 32 -34 39 l-26 10 23 9 c12 5 28 20 34 35 l12 26 9 -25 c5 -15 17
-29 28 -32z m1249 -335 c-13 -39 -32 -81 -42 -93 -11 -12 -17 -17 -14 -10 4 6
2 14 -3 18 -7 3 -7 14 -1 28 13 34 24 80 21 96 -3 19 41 53 53 41 5 -5 -1 -38
-14 -80z m548 -19 c28 -1 28 -9 -3 -45 -14 -16 -25 -33 -25 -37 0 -4 -9 -11
-20 -14 -15 -5 -30 2 -52 24 -34 34 -64 38 -113 18 -27 -12 -31 -11 -57 19
-15 17 -28 33 -28 36 0 3 240 3 298 -1z m162 -12 c0 -5 -6 -12 -14 -15 -21 -8
-28 -34 -15 -50 7 -9 7 -14 1 -14 -14 0 -84 88 -72 92 20 6 100 -4 100 -13z
m-453 -45 c25 -22 25 -22 4 -29 -11 -3 -24 -18 -27 -31 l-6 -25 -19 30 c-10
17 -27 31 -36 31 -13 1 -11 5 9 15 15 8 30 25 34 37 5 17 8 19 12 8 2 -8 15
-25 29 -36z m343 10 c0 -32 50 -84 82 -85 18 0 14 -4 -19 -19 -43 -19 -63 -44
-63 -79 0 -12 -4 -21 -10 -21 -5 0 -10 9 -10 20 0 40 -23 69 -64 83 l-41 14
32 7 c38 9 73 48 73 82 0 13 5 24 10 24 6 0 10 -12 10 -26z m-182 -40 c29 -20
31 -79 3 -94 -30 -16 -59 -12 -81 10 -26 26 -25 46 5 75 28 29 42 31 73 9z
m-630 -137 c66 -55 162 -180 162 -211 0 -5 -43 36 -96 92 -53 56 -100 102
-105 102 -5 0 -14 -10 -20 -22 -8 -19 -9 -18 -4 11 3 18 5 40 5 47 0 22 15 17
58 -19z m642 -26 c0 -22 4 -51 10 -65 l10 -26 -64 0 -64 0 10 37 c5 20 7 49 4
65 -5 28 -5 28 44 28 l50 0 0 -39z m49 -151 c44 -65 37 -70 -95 -70 -93 0
-116 3 -120 15 -13 33 15 45 107 45 58 0 89 4 89 11 0 7 -28 10 -85 8 -47 -2
-85 -2 -85 0 0 3 6 12 14 20 11 12 32 16 80 15 l66 0 29 -44z m-419 -23 c-1
-20 -68 -89 -79 -82 -19 11 -12 28 26 67 35 35 53 41 53 15z m133 -124 c67
-47 139 -98 159 -113 l37 -27 -39 -38 c-22 -21 -42 -37 -44 -34 -3 2 -66 64
-140 138 -107 105 -133 137 -125 148 6 7 16 13 21 13 5 0 64 -39 131 -87z
m333 18 c-5 -7 -56 -11 -147 -11 -132 0 -139 1 -139 20 0 18 8 20 133 22 131
3 169 -5 153 -31z m-90 -156 c6 -16 -83 -125 -103 -125 -30 0 -20 25 29 80 57
63 65 68 74 45z"/>
<path d="M2384 1992 l-71 -3 1 -279 1 -280 233 0 232 0 0 280 0 280 -62 1
c-35 0 -108 1 -163 2 -55 1 -132 1 -171 -1z m126 -51 c0 -40 0 -40 43 -43 l42
-3 3 -47 3 -48 45 0 44 0 0 50 0 50 -45 0 -45 0 0 40 0 40 45 0 45 0 0 -39 c0
-39 1 -40 38 -43 37 -3 37 -3 40 -50 l3 -48 -40 0 -41 0 0 -45 0 -45 40 0 40
0 0 -45 0 -45 -40 0 -40 0 0 45 0 45 -45 0 -45 0 0 -44 0 -43 53 -8 c28 -3 64
-7 80 -7 25 -1 27 -4 27 -44 0 -44 0 -44 -35 -44 -34 0 -35 -1 -35 -40 l0 -40
-45 0 -45 0 0 40 c0 40 0 40 40 40 l40 0 0 44 0 44 -85 7 -85 7 0 44 0 44 -45
0 c-41 0 -45 -2 -45 -25 0 -14 -9 -34 -20 -45 -11 -11 -31 -20 -45 -20 -23 0
-25 4 -25 45 l0 45 45 0 45 0 0 45 0 45 -45 0 -45 0 0 51 0 50 43 -3 42 -3 3
-47 3 -48 45 0 44 0 0 50 0 50 -45 0 -45 0 0 40 0 40 45 0 45 0 0 -39z m-60
-336 c0 -20 -5 -25 -25 -25 -18 0 -25 5 -25 18 0 10 3 22 7 25 3 4 15 7 25 7
13 0 18 -7 18 -25z m117 -5 c33 0 34 -1 31 -37 -3 -38 -3 -38 -52 -41 -57 -4
-68 4 -73 54 -4 36 -4 37 28 30 17 -3 47 -6 66 -6z m-107 -60 c0 -16 -7 -20
-35 -20 -28 0 -35 4 -35 20 0 16 7 20 35 20 28 0 35 -4 35 -20z m18 -67 c3
-21 0 -23 -51 -23 -61 0 -70 5 -56 32 8 15 19 18 57 16 40 -3 47 -6 50 -25z"/>
<path d="M2510 1755 l0 -45 45 0 45 0 0 45 0 45 -45 0 -45 0 0 -45z"/>
<path d="M2088 2009 c-25 -14 -23 -56 3 -69 16 -9 25 -8 40 6 24 21 24 36 1
57 -21 20 -21 20 -44 6z"/>
<path d="M233 1853 c-16 -6 -17 -45 -1 -61 16 -16 36 -15 54 2 36 36 -3 80
-53 59z m40 -20 c9 -9 -13 -34 -24 -27 -14 8 -11 34 4 34 8 0 17 -3 20 -7z"/>
<path d="M330 1741 c-8 -10 -28 -26 -45 -36 -62 -38 -66 -44 -50 -76 21 -39
19 -49 -9 -49 -14 0 -36 -10 -51 -22 -25 -23 -25 -25 -26 -172 l0 -149 29 -36
c25 -30 59 -56 152 -110 12 -8 10 -18 -15 -62 -22 -42 -30 -70 -33 -130 -4
-73 -3 -79 27 -122 17 -25 34 -47 39 -49 4 -1 18 -18 31 -36 29 -42 75 -66 99
-53 9 6 12 11 5 11 -15 0 -83 59 -83 71 0 19 27 7 48 -21 13 -16 37 -36 55
-44 18 -7 41 -22 52 -33 29 -27 68 -53 80 -53 5 0 35 20 64 44 30 25 59 43 63
40 5 -4 26 12 47 35 21 23 43 41 50 41 20 0 -6 -37 -44 -63 -19 -13 -32 -26
-29 -30 11 -11 59 4 77 24 9 12 17 16 17 10 0 -21 -40 -92 -55 -98 -9 -3 -15
-18 -15 -34 0 -34 -15 -34 -46 1 -20 23 -24 24 -49 10 -42 -22 -51 -48 -27
-79 25 -34 49 -38 78 -10 l23 22 38 -43 c93 -106 147 -160 167 -166 11 -4 36
-20 54 -35 41 -36 63 -36 102 -1 35 30 53 89 44 139 -9 48 -1 52 68 33 35 -9
91 -20 126 -23 34 -4 70 -10 79 -16 18 -9 8 -21 -77 -93 -26 -23 -30 -30 -21
-47 13 -23 65 -42 119 -43 89 -1 205 65 257 146 19 30 36 61 36 68 1 7 5 -18
10 -57 7 -63 3 -99 -8 -67 -6 17 -48 15 -63 -3 -16 -19 -9 -45 16 -62 19 -12
24 -12 38 2 8 9 20 24 26 33 6 11 12 13 17 6 14 -18 57 -44 74 -44 9 0 36 16
60 35 24 19 48 35 52 35 12 0 107 93 107 104 0 5 15 24 34 42 18 18 36 45 39
61 6 29 -18 93 -35 93 -5 0 -16 16 -24 36 -8 19 -40 60 -72 89 -50 48 -63 56
-87 55 -3 0 -15 8 -26 19 -29 27 -52 31 -88 13 -31 -14 -42 -39 -65 -145 l-7
-28 -34 52 c-65 95 -138 139 -248 146 l-77 6 -41 -42 c-25 -25 -48 -40 -56
-37 -16 7 -63 -36 -63 -57 0 -8 -9 -22 -20 -32 -11 -10 -20 -26 -20 -36 0 -30
-20 -32 -21 -2 -1 43 -8 84 -20 125 -10 30 -20 41 -54 55 -42 17 -42 18 -27
41 14 22 14 25 -6 44 -18 19 -25 20 -47 10 -32 -15 -32 -47 0 -68 21 -14 23
-19 13 -32 -7 -8 -28 -21 -47 -29 -18 -8 -43 -24 -56 -36 -50 -49 -65 -58 -65
-41 0 8 11 26 24 39 60 60 71 86 70 165 -1 46 -7 89 -17 112 -21 46 -72 95
-114 109 -35 11 -43 33 -18 43 22 8 19 53 -4 66 -45 24 -83 -38 -43 -70 13
-11 17 -21 11 -27 -6 -6 4 -16 30 -28 79 -35 121 -105 121 -200 0 -160 -122
-196 -273 -80 l-41 32 -64 -43 c-73 -51 -112 -63 -167 -53 -129 23 -122 257
10 334 24 15 47 34 50 44 5 15 22 28 69 50 8 3 6 -14 -8 -74 -1 -5 -9 -24 -18
-40 -12 -23 -24 -31 -48 -33 -34 -3 -33 11 2 36 10 7 18 17 18 22 0 18 -45 -5
-81 -41 -67 -67 -73 -158 -13 -221 22 -22 36 -28 71 -28 24 0 58 7 76 16 58
30 60 33 27 70 -26 30 -58 110 -47 120 9 10 130 16 181 10 49 -7 56 -10 56
-29 -1 -29 -32 -98 -53 -116 -9 -7 -14 -17 -11 -22 12 -20 86 -49 125 -49 103
0 145 147 67 236 -30 34 -85 70 -94 61 -3 -2 9 -19 26 -37 33 -35 34 -48 2
-31 -11 6 -21 8 -24 6 -13 -13 -43 43 -59 112 -24 98 -24 161 -2 185 13 15 14
23 5 44 -7 13 -12 37 -12 52 0 15 -7 36 -15 46 -8 11 -15 28 -15 38 0 24 -40
59 -65 56 -11 -2 -27 -11 -37 -21 -15 -17 -18 -17 -52 7 -20 13 -42 26 -48 28
-8 3 -7 14 1 41 13 38 4 67 -21 67 -5 0 -14 4 -21 10 -84 68 -92 71 -117 41z
m108 -76 l47 -7 -28 -20 c-23 -17 -27 -25 -22 -49 l7 -29 -81 0 -81 0 11 27
c9 23 6 29 -18 49 l-28 23 41 6 c35 6 44 13 59 44 l18 36 15 -37 c12 -32 19
-37 60 -43z m90 -279 c-4 -179 -3 -177 -110 -235 l-63 -33 -71 42 c-39 24 -77
53 -84 64 -9 14 -13 66 -14 168 l-1 148 173 0 173 0 -3 -154z m126 137 c9 -21
-16 -46 -37 -37 -20 7 -22 20 -4 39 16 19 34 19 41 -2z m36 -67 c0 -3 -4 -16
-10 -30 -8 -22 -16 -26 -47 -26 -30 0 -40 5 -49 25 -7 13 -9 26 -6 30 6 6 112
7 112 1z m15 -96 c0 -11 -15 -16 -64 -18 -79 -4 -98 2 -81 24 18 21 145 16
145 -6z m-35 -77 c1 -40 22 -156 35 -185 6 -16 0 -18 -73 -18 l-80 0 15 42 c8
23 16 71 19 107 8 89 8 91 49 91 34 0 35 -1 35 -37z m158 -100 c2 -8 -5 -13
-17 -13 -12 0 -21 6 -21 16 0 18 31 15 38 -3z m-100 -135 c8 -10 -12 -13 -98
-13 -86 0 -106 3 -98 13 7 8 40 12 98 12 58 0 91 -4 98 -12z m-234 -85 c3 -21
17 -55 31 -75 l25 -37 -29 -16 c-39 -19 -95 -19 -115 1 -42 42 -24 118 36 147
45 22 45 22 52 -20z m332 16 c40 -24 54 -47 54 -86 0 -65 -51 -89 -129 -62
-37 13 -38 21 -10 60 12 17 23 48 26 69 6 46 13 48 59 19z m250 -110 c10 -17
-13 -36 -27 -22 -12 12 -4 33 11 33 5 0 12 -5 16 -11z m-397 -95 c18 -14 36
-36 43 -48 l11 -21 -24 21 c-56 50 -96 52 -145 7 -43 -40 -39 -18 5 26 48 48
68 51 110 15z m916 -18 c71 -32 155 -133 155 -184 0 -5 -37 2 -81 15 -45 12
-92 23 -104 23 -18 0 -26 8 -35 36 -16 49 -72 102 -116 110 -55 10 -21 24 61
24 52 0 83 -6 120 -24z m-453 -16 c12 -17 20 -48 23 -95 l5 -70 -18 74 c-9 41
-22 76 -29 78 -22 8 -37 -79 -37 -217 0 -132 14 -220 35 -220 12 0 19 17 36
89 l13 56 -4 -67 c-5 -83 -24 -118 -66 -118 -39 0 -46 16 -61 142 -12 111 0
319 22 360 14 26 57 20 81 -12z m788 -5 c12 -24 15 -71 15 -225 0 -222 -8
-260 -55 -260 -15 0 -35 8 -44 19 -17 18 -43 147 -32 158 7 8 13 -12 21 -68 3
-26 12 -54 19 -64 13 -18 14 -17 26 4 16 31 27 191 19 298 -7 101 -16 136 -32
130 -15 -5 -36 -63 -36 -104 -1 -17 -6 -35 -12 -39 -13 -8 -5 78 12 133 19 60
73 69 99 18z m-1247 -15 c14 -11 32 -20 41 -20 20 0 21 -19 1 -26 -8 -3 -26 4
-41 15 -34 26 -76 27 -99 1 -21 -23 -55 -27 -55 -5 0 8 5 15 11 15 6 0 22 9
36 20 14 11 38 20 53 20 15 0 39 -9 53 -20z m721 14 c19 -7 21 -50 4 -57 -18
-6 -48 11 -48 26 0 7 5 18 12 25 14 14 12 14 32 6z m-378 -31 c-30 -95 -40
-328 -17 -371 15 -28 7 -40 -17 -26 -15 10 -17 34 -20 190 -3 210 -1 224 34
224 20 0 24 -4 20 -17z m985 -13 c9 -33 9 -328 0 -360 -4 -14 -15 -26 -25 -28
-15 -3 -18 0 -12 19 20 76 27 165 17 218 -11 57 -31 171 -31 179 0 2 10 2 22
0 14 -2 25 -13 29 -28z m-675 9 c3 -6 0 -17 -7 -25 -18 -17 -44 -2 -36 20 7
18 33 21 43 5z m-668 -31 c7 -7 12 -18 12 -25 0 -11 -5 -10 -23 2 -21 13 -26
13 -43 0 -24 -18 -34 -19 -34 -2 0 33 62 51 88 25z m276 -60 c-3 -29 -10 -70
-15 -91 -10 -37 -4 -97 12 -129 13 -24 -11 -35 -28 -13 -17 25 -19 255 -1 273
28 28 39 14 32 -40z m416 32 c0 -21 -24 -28 -35 -10 -8 14 3 30 21 30 8 0 14
-9 14 -20z m722 -15 c13 -45 -1 -242 -19 -256 -21 -18 -24 -6 -11 50 9 39 9
66 0 115 -17 92 -16 128 5 124 9 -2 20 -16 25 -33z m-797 -6 c0 -7 -8 -15 -17
-17 -18 -3 -25 18 -11 32 10 10 28 1 28 -15z m253 -106 l3 -93 -73 0 c-67 0
-178 13 -220 26 -15 4 -18 17 -18 65 0 32 3 59 8 59 4 0 39 9 77 20 46 13 96
18 145 17 l75 -2 3 -92z m-388 47 c0 -5 11 -10 25 -10 23 0 25 -4 25 -45 0
-38 -3 -45 -19 -45 -11 0 -26 -3 -35 -6 -14 -5 -16 3 -16 55 0 34 4 61 10 61
6 0 10 -4 10 -10z m708 -45 c2 -26 0 -51 -5 -55 -4 -4 -25 -5 -45 -3 -37 5
-38 6 -38 49 0 42 1 44 30 44 17 0 30 5 30 11 0 6 6 9 13 7 7 -3 13 -25 15
-53z m-986 -12 c-5 -65 -6 -68 -21 -58 -6 3 -11 31 -11 61 0 46 3 54 18 54 16
0 18 -7 14 -57z m809 40 c89 -32 74 -65 -31 -71 l-70 -4 0 46 c0 43 2 46 26
46 15 0 48 -8 75 -17z m460 10 c8 -47 5 -94 -7 -104 -17 -14 -15 -17 -20 54
-2 45 0 57 11 57 8 0 16 -3 16 -7z m-1394 -73 c-13 -19 -13 -19 -30 0 -16 19
-16 21 0 40 17 19 17 19 30 0 12 -17 12 -23 0 -40z m1003 -45 c0 -54 -86 -155
-159 -188 -50 -22 -164 -28 -196 -10 -16 9 -14 12 18 22 46 16 92 63 113 118
15 38 21 43 48 43 17 1 60 7 96 14 36 8 68 14 73 15 4 0 7 -6 7 -14z m16 -176
c10 -17 -13 -36 -27 -22 -12 12 -4 33 11 33 5 0 12 -5 16 -11z"/>
<path d="M222 1343 l3 -108 65 -39 64 -39 64 34 c38 20 68 43 73 57 5 13 9 64
9 113 l0 89 -140 0 -141 0 3 -107z m118 60 c0 -2 -16 -17 -35 -34 -45 -40 -45
-68 -1 -107 38 -33 75 -35 108 -5 43 38 39 80 -14 125 -19 17 -19 17 6 24 50
12 59 0 54 -71 -3 -44 -10 -70 -23 -85 -22 -24 -93 -48 -103 -34 -4 5 -20 16
-37 24 -28 15 -30 19 -33 84 -3 76 4 87 51 84 15 -1 27 -4 27 -5z m56 -68 c12
-18 11 -24 -2 -43 -34 -49 -103 -6 -74 47 14 28 57 25 76 -4z"/>
<path d="M565 1660 c-19 -21 -15 -64 9 -73 18 -7 56 20 56 40 0 12 -35 53 -45
53 -1 0 -10 -9 -20 -20z m35 -30 c0 -11 -7 -20 -15 -20 -15 0 -21 21 -8 33 12
13 23 7 23 -13z"/>
<path d="M2092 1097 c-18 -18 -32 -40 -32 -50 0 -20 57 -87 74 -87 20 0 83 74
78 90 -6 21 -63 80 -77 80 -6 0 -25 -15 -43 -33z m89 -43 c19 -10 20 -13 6
-14 -9 0 -26 -14 -36 -31 l-19 -30 -6 25 c-3 13 -15 28 -26 31 -20 6 -20 7 5
27 14 10 25 27 25 36 1 13 4 11 14 -7 7 -13 24 -30 37 -37z"/>
<path d="M2569 991 c-25 -20 -21 -44 10 -60 29 -16 68 17 53 46 -16 30 -38 35
-63 14z"/>
<path d="M1195 804 c-16 -25 -16 -27 3 -46 24 -24 58 -17 68 14 5 16 0 27 -16
40 -29 24 -35 23 -55 -8z m48 -11 c9 -9 -13 -34 -24 -27 -14 8 -11 34 4 34 8
0 17 -3 20 -7z"/>
<path d="M2220 530 c-24 -24 -24 -29 -5 -54 12 -16 19 -18 40 -8 31 14 34 52
5 70 -17 10 -23 9 -40 -8z"/>
</g>
</svg>
